<svg width="953" height="833" viewBox="0 0 953 833" fill="none" xmlns="http://www.w3.org/2000/svg">
<path d="M649.385 671.465L778.667 198.916H953.421L734.978 848.002H563.791L355.5 199L515.861 198.916L649.385 671.465Z" fill="white"/>
<path d="M355.303 485.477C355.303 462.593 347.13 444.761 330.784 431.981C314.736 419.201 286.353 405.976 245.636 392.305C204.92 378.634 171.634 365.408 145.777 352.628C61.6692 311.318 19.6152 254.552 19.6152 182.333C19.6152 146.371 30.0173 114.719 50.8213 87.377C71.9226 59.7374 101.643 38.3389 139.982 23.1817C178.321 7.72721 221.415 0 269.264 0C315.924 0 357.681 8.32161 394.534 24.9649C431.684 41.6081 460.512 65.3842 481.019 96.293C501.526 126.905 508.879 162.002 515.879 200.002H355.5C349.72 173.002 347.576 154.544 331.23 139.981C315.181 125.419 293.337 118.137 265.698 118.137C237.761 118.137 215.619 124.378 199.273 136.861C183.224 149.046 175.2 164.649 175.2 183.67C175.2 200.313 184.116 215.47 201.948 229.142C219.78 242.516 251.135 256.484 296.012 271.047C340.889 285.313 377.742 300.767 406.571 317.41C476.71 357.829 511.78 413.555 511.78 484.585C511.78 541.351 490.381 585.931 447.584 618.326C404.787 650.721 346.09 666.918 271.493 666.918C218.888 666.918 171.188 657.556 128.391 638.833C85.8909 619.812 53.7932 593.955 32.0976 561.263C10.6992 528.274 0 490.381 0 447.584H156.922C156.922 482.356 165.838 508.064 183.67 524.708C201.799 541.054 231.074 549.227 271.493 549.227C297.349 549.227 317.708 543.728 332.568 532.732C347.725 521.438 355.303 505.687 355.303 485.477Z" fill="white"/>
</svg>
